0
SECTION
2
HEADER
9
$ACADVER
1
AC1009
9
$INSBASE
10
0.000
20
0.000
30
0.000
9
$EXTMIN
10
7513938.660
20
4691208.600
9
$EXTMAX
10
7513938.660
20
4691208.600
0
ENDSEC
0
SECTION
2
TABLES
0
TABLE
2
LTYPE
70
1
0
LTYPE
2
continuous
70
64
3
Solid line
72
65
73
0
40
0.000
0
ENDTAB
0
TABLE
2
LAYER
70
1
0
LAYER
2
Parcela
70
64
62
7
6
continuous
0
ENDTAB
0
TABLE
2
STYLE
70
1
0
STYLE
2
ANNOTATIVE
70
0
40
0
41
40
50
50
71
0
42
1
3
ARIAL.TTF
4

0
ENDTAB
0
TABLE
2
VIEW
70
0
0
ENDTAB
0
ENDSEC
0
SECTION
2
BLOCKS
0
ENDSEC
0
SECTION
2
ENTITIES
0
POLYLINE
66
1
8
Parcela Baze
70
0
10
7509585.522
20
4689326.592
0
VERTEX
8
Parcela Baze
10
7509585.522
20
4689326.592
0
VERTEX
8
Parcela Baze
10
7509569.103
20
4689338.313
0
VERTEX
8
Parcela Baze
10
7509559.093
20
4689347.133
0
VERTEX
8
Parcela Baze
10
7509555.553
20
4689352.183
0
VERTEX
8
Parcela Baze
10
7509565.973
20
4689359.602
0
VERTEX
8
Parcela Baze
10
7509577.023
20
4689365.282
0
VERTEX
8
Parcela Baze
10
7509606.203
20
4689377.430
0
VERTEX
8
Parcela Baze
10
7509610.142
20
4689373.320
0
VERTEX
8
Parcela Baze
10
7509612.512
20
4689368.420
0
VERTEX
8
Parcela Baze
10
7509610.112
20
4689359.931
0
VERTEX
8
Parcela Baze
10
7509592.462
20
4689336.372
0
VERTEX
8
Parcela Baze
10
7509585.522
20
4689326.592
0
SEQEND
0
TEXT
8
Nr Parceles Baze
10
7509570.793
20
4689344.212
40
0.800000
1
01827-0
0
TEXT
8
Nr e Pikave Gjeodezike te Parceles Baze
10
7509585.522
20
4689326.592
40
0.800000
1
41207
0
POINT
8
Pikat
10
7509585.522
20
4689326.592
0
TEXT
8
Nr e Pikave Gjeodezike te Parceles Baze
10
7509592.462
20
4689336.372
40
0.800000
1
41208
0
POINT
8
Pikat
10
7509592.462
20
4689336.372
0
TEXT
8
Nr e Pikave Gjeodezike te Parceles Baze
10
7509610.112
20
4689359.931
40
0.800000
1
41209
0
POINT
8
Pikat
10
7509610.112
20
4689359.931
0
TEXT
8
Nr e Pikave Gjeodezike te Parceles Baze
10
7509612.512
20
4689368.420
40
0.800000
1
41210
0
POINT
8
Pikat
10
7509612.512
20
4689368.420
0
TEXT
8
Nr e Pikave Gjeodezike te Parceles Baze
10
7509610.142
20
4689373.320
40
0.800000
1
45908
0
POINT
8
Pikat
10
7509610.142
20
4689373.320
0
TEXT
8
Nr e Pikave Gjeodezike te Parceles Baze
10
7509606.203
20
4689377.430
40
0.800000
1
45909
0
POINT
8
Pikat
10
7509606.203
20
4689377.430
0
TEXT
8
Nr e Pikave Gjeodezike te Parceles Baze
10
7509577.023
20
4689365.282
40
0.800000
1
45910
0
POINT
8
Pikat
10
7509577.023
20
4689365.282
0
TEXT
8
Nr e Pikave Gjeodezike te Parceles Baze
10
7509565.973
20
4689359.602
40
0.800000
1
45911
0
POINT
8
Pikat
10
7509565.973
20
4689359.602
0
TEXT
8
Nr e Pikave Gjeodezike te Parceles Baze
10
7509555.553
20
4689352.183
40
0.800000
1
45912
0
POINT
8
Pikat
10
7509555.553
20
4689352.183
0
TEXT
8
Nr e Pikave Gjeodezike te Parceles Baze
10
7509559.093
20
4689347.133
40
0.800000
1
45953
0
POINT
8
Pikat
10
7509559.093
20
4689347.133
0
TEXT
8
Nr e Pikave Gjeodezike te Parceles Baze
10
7509569.103
20
4689338.313
40
0.800000
1
45954
0
POINT
8
Pikat
10
7509569.103
20
4689338.313
0
ENDSEC
0
EOF
