0
SECTION
2
HEADER
9
$ACADVER
1
AC1009
9
$INSBASE
10
0.000
20
0.000
30
0.000
9
$EXTMIN
10
7513938.660
20
4691208.600
9
$EXTMAX
10
7513938.660
20
4691208.600
0
ENDSEC
0
SECTION
2
TABLES
0
TABLE
2
LTYPE
70
1
0
LTYPE
2
continuous
70
64
3
Solid line
72
65
73
0
40
0.000
0
ENDTAB
0
TABLE
2
LAYER
70
1
0
LAYER
2
Parcela
70
64
62
7
6
continuous
0
ENDTAB
0
TABLE
2
STYLE
70
1
0
STYLE
2
ANNOTATIVE
70
0
40
0
41
40
50
50
71
0
42
1
3
ARIAL.TTF
4

0
ENDTAB
0
TABLE
2
VIEW
70
0
0
ENDTAB
0
ENDSEC
0
SECTION
2
BLOCKS
0
ENDSEC
0
SECTION
2
ENTITIES
0
POLYLINE
66
1
8
Parcela Baze
70
0
10
7509649.641
20
4689311.621
0
VERTEX
8
Parcela Baze
10
7509649.641
20
4689311.621
0
VERTEX
8
Parcela Baze
10
7509620.051
20
4689296.032
0
VERTEX
8
Parcela Baze
10
7509611.471
20
4689304.962
0
VERTEX
8
Parcela Baze
10
7509614.941
20
4689310.802
0
VERTEX
8
Parcela Baze
10
7509609.572
20
4689317.592
0
VERTEX
8
Parcela Baze
10
7509615.572
20
4689322.802
0
VERTEX
8
Parcela Baze
10
7509620.622
20
4689338.601
0
VERTEX
8
Parcela Baze
10
7509612.732
20
4689355.491
0
VERTEX
8
Parcela Baze
10
7509616.822
20
4689360.661
0
VERTEX
8
Parcela Baze
10
7509617.262
20
4689354.491
0
VERTEX
8
Parcela Baze
10
7509628.502
20
4689339.031
0
VERTEX
8
Parcela Baze
10
7509639.391
20
4689324.651
0
VERTEX
8
Parcela Baze
10
7509649.641
20
4689311.621
0
SEQEND
0
TEXT
8
Nr Parceles Baze
10
7509621.351
20
4689310.222
40
0.800000
1
01958-0
0
TEXT
8
Nr e Pikave Gjeodezike te Parceles Baze
10
7509616.822
20
4689360.661
40
0.800000
1
41219
0
POINT
8
Pikat
10
7509616.822
20
4689360.661
0
TEXT
8
Nr e Pikave Gjeodezike te Parceles Baze
10
7509612.732
20
4689355.491
40
0.800000
1
41220
0
POINT
8
Pikat
10
7509612.732
20
4689355.491
0
TEXT
8
Nr e Pikave Gjeodezike te Parceles Baze
10
7509649.641
20
4689311.621
40
0.800000
1
45993
0
POINT
8
Pikat
10
7509649.641
20
4689311.621
0
TEXT
8
Nr e Pikave Gjeodezike te Parceles Baze
10
7509620.051
20
4689296.032
40
0.800000
1
45998
0
POINT
8
Pikat
10
7509620.051
20
4689296.032
0
TEXT
8
Nr e Pikave Gjeodezike te Parceles Baze
10
7509611.471
20
4689304.962
40
0.800000
1
45999
0
POINT
8
Pikat
10
7509611.471
20
4689304.962
0
TEXT
8
Nr e Pikave Gjeodezike te Parceles Baze
10
7509614.941
20
4689310.802
40
0.800000
1
46000
0
POINT
8
Pikat
10
7509614.941
20
4689310.802
0
TEXT
8
Nr e Pikave Gjeodezike te Parceles Baze
10
7509609.572
20
4689317.592
40
0.800000
1
46001
0
POINT
8
Pikat
10
7509609.572
20
4689317.592
0
TEXT
8
Nr e Pikave Gjeodezike te Parceles Baze
10
7509615.572
20
4689322.802
40
0.800000
1
46002
0
POINT
8
Pikat
10
7509615.572
20
4689322.802
0
TEXT
8
Nr e Pikave Gjeodezike te Parceles Baze
10
7509620.622
20
4689338.601
40
0.800000
1
46003
0
POINT
8
Pikat
10
7509620.622
20
4689338.601
0
TEXT
8
Nr e Pikave Gjeodezike te Parceles Baze
10
7509617.262
20
4689354.491
40
0.800000
1
46004
0
POINT
8
Pikat
10
7509617.262
20
4689354.491
0
TEXT
8
Nr e Pikave Gjeodezike te Parceles Baze
10
7509628.502
20
4689339.031
40
0.800000
1
46005
0
POINT
8
Pikat
10
7509628.502
20
4689339.031
0
TEXT
8
Nr e Pikave Gjeodezike te Parceles Baze
10
7509639.391
20
4689324.651
40
0.800000
1
46006
0
POINT
8
Pikat
10
7509639.391
20
4689324.651
0
ENDSEC
0
EOF
