0
SECTION
2
HEADER
9
$ACADVER
1
AC1009
9
$INSBASE
10
0.000
20
0.000
30
0.000
9
$EXTMIN
10
7513938.660
20
4691208.600
9
$EXTMAX
10
7513938.660
20
4691208.600
0
ENDSEC
0
SECTION
2
TABLES
0
TABLE
2
LTYPE
70
1
0
LTYPE
2
continuous
70
64
3
Solid line
72
65
73
0
40
0.000
0
ENDTAB
0
TABLE
2
LAYER
70
1
0
LAYER
2
Parcela
70
64
62
7
6
continuous
0
ENDTAB
0
TABLE
2
STYLE
70
1
0
STYLE
2
ANNOTATIVE
70
0
40
0
41
40
50
50
71
0
42
1
3
ARIAL.TTF
4

0
ENDTAB
0
TABLE
2
VIEW
70
0
0
ENDTAB
0
ENDSEC
0
SECTION
2
BLOCKS
0
ENDSEC
0
SECTION
2
ENTITIES
0
POLYLINE
66
1
8
Parcela Baze
70
0
10
7509662.002
20
4689372.478
0
VERTEX
8
Parcela Baze
10
7509662.002
20
4689372.478
0
VERTEX
8
Parcela Baze
10
7509667.291
20
4689359.879
0
VERTEX
8
Parcela Baze
10
7509654.542
20
4689355.520
0
VERTEX
8
Parcela Baze
10
7509628.502
20
4689339.031
0
VERTEX
8
Parcela Baze
10
7509617.262
20
4689354.491
0
VERTEX
8
Parcela Baze
10
7509616.822
20
4689360.661
0
VERTEX
8
Parcela Baze
10
7509623.452
20
4689371.720
0
VERTEX
8
Parcela Baze
10
7509651.463
20
4689393.467
0
VERTEX
8
Parcela Baze
10
7509657.062
20
4689383.289
0
VERTEX
8
Parcela Baze
10
7509662.002
20
4689372.478
0
SEQEND
0
TEXT
8
Nr Parceles Baze
10
7509640.032
20
4689361.890
40
0.800000
1
01962-0
0
TEXT
8
Nr e Pikave Gjeodezike te Parceles Baze
10
7509651.463
20
4689393.467
40
0.800000
1
41217
0
POINT
8
Pikat
10
7509651.463
20
4689393.467
0
TEXT
8
Nr e Pikave Gjeodezike te Parceles Baze
10
7509617.262
20
4689354.491
40
0.800000
1
46004
0
POINT
8
Pikat
10
7509617.262
20
4689354.491
0
TEXT
8
Nr e Pikave Gjeodezike te Parceles Baze
10
7509662.002
20
4689372.478
40
0.800000
1
46011
0
POINT
8
Pikat
10
7509662.002
20
4689372.478
0
TEXT
8
Nr e Pikave Gjeodezike te Parceles Baze
10
7509616.822
20
4689360.661
40
0.800000
1
41219
0
POINT
8
Pikat
10
7509616.822
20
4689360.661
0
TEXT
8
Nr e Pikave Gjeodezike te Parceles Baze
10
7509654.542
20
4689355.520
40
0.800000
1
46018
0
POINT
8
Pikat
10
7509654.542
20
4689355.520
0
TEXT
8
Nr e Pikave Gjeodezike te Parceles Baze
10
7509657.062
20
4689383.289
40
0.800000
1
46032
0
POINT
8
Pikat
10
7509657.062
20
4689383.289
0
TEXT
8
Nr e Pikave Gjeodezike te Parceles Baze
10
7509623.452
20
4689371.720
40
0.800000
1
41218
0
POINT
8
Pikat
10
7509623.452
20
4689371.720
0
TEXT
8
Nr e Pikave Gjeodezike te Parceles Baze
10
7509628.502
20
4689339.031
40
0.800000
1
46005
0
POINT
8
Pikat
10
7509628.502
20
4689339.031
0
TEXT
8
Nr e Pikave Gjeodezike te Parceles Baze
10
7509667.291
20
4689359.879
40
0.800000
1
46010
0
POINT
8
Pikat
10
7509667.291
20
4689359.879
0
ENDSEC
0
EOF
