0
SECTION
2
HEADER
9
$ACADVER
1
AC1009
9
$INSBASE
10
0.000
20
0.000
30
0.000
9
$EXTMIN
10
7513938.660
20
4691208.600
9
$EXTMAX
10
7513938.660
20
4691208.600
0
ENDSEC
0
SECTION
2
TABLES
0
TABLE
2
LTYPE
70
1
0
LTYPE
2
continuous
70
64
3
Solid line
72
65
73
0
40
0.000
0
ENDTAB
0
TABLE
2
LAYER
70
1
0
LAYER
2
Parcela
70
64
62
7
6
continuous
0
ENDTAB
0
TABLE
2
STYLE
70
1
0
STYLE
2
ANNOTATIVE
70
0
40
0
41
40
50
50
71
0
42
1
3
ARIAL.TTF
4

0
ENDTAB
0
TABLE
2
VIEW
70
0
0
ENDTAB
0
ENDSEC
0
SECTION
2
BLOCKS
0
ENDSEC
0
SECTION
2
ENTITIES
0
POLYLINE
66
1
8
Parcela Baze
70
0
10
7509705.210
20
4689296.009
0
VERTEX
8
Parcela Baze
10
7509705.210
20
4689296.009
0
VERTEX
8
Parcela Baze
10
7509678.351
20
4689332.250
0
VERTEX
8
Parcela Baze
10
7509667.291
20
4689359.879
0
VERTEX
8
Parcela Baze
10
7509662.002
20
4689372.478
0
VERTEX
8
Parcela Baze
10
7509673.482
20
4689378.398
0
VERTEX
8
Parcela Baze
10
7509678.023
20
4689366.494
0
VERTEX
8
Parcela Baze
10
7509689.121
20
4689338.419
0
VERTEX
8
Parcela Baze
10
7509697.742
20
4689327.186
0
VERTEX
8
Parcela Baze
10
7509701.030
20
4689323.350
0
VERTEX
8
Parcela Baze
10
7509714.850
20
4689306.049
0
VERTEX
8
Parcela Baze
10
7509705.210
20
4689296.009
0
SEQEND
0
TEXT
8
Nr Parceles Baze
10
7509683.668
20
4689336.858
40
0.800000
1
01966-0
0
TEXT
8
Nr e Pikave Gjeodezike te Parceles Baze
10
7509678.351
20
4689332.250
40
0.800000
1
45994
0
POINT
8
Pikat
10
7509678.351
20
4689332.250
0
TEXT
8
Nr e Pikave Gjeodezike te Parceles Baze
10
7509705.210
20
4689296.009
40
0.800000
1
45995
0
POINT
8
Pikat
10
7509705.210
20
4689296.009
0
TEXT
8
Nr e Pikave Gjeodezike te Parceles Baze
10
7509667.291
20
4689359.879
40
0.800000
1
46010
0
POINT
8
Pikat
10
7509667.291
20
4689359.879
0
TEXT
8
Nr e Pikave Gjeodezike te Parceles Baze
10
7509662.002
20
4689372.478
40
0.800000
1
46011
0
POINT
8
Pikat
10
7509662.002
20
4689372.478
0
TEXT
8
Nr e Pikave Gjeodezike te Parceles Baze
10
7509673.482
20
4689378.398
40
0.800000
1
46012
0
POINT
8
Pikat
10
7509673.482
20
4689378.398
0
TEXT
8
Nr e Pikave Gjeodezike te Parceles Baze
10
7509678.023
20
4689366.494
40
0.800000
1
46013
0
POINT
8
Pikat
10
7509678.023
20
4689366.494
0
TEXT
8
Nr e Pikave Gjeodezike te Parceles Baze
10
7509689.121
20
4689338.419
40
0.800000
1
46014
0
POINT
8
Pikat
10
7509689.121
20
4689338.419
0
TEXT
8
Nr e Pikave Gjeodezike te Parceles Baze
10
7509697.742
20
4689327.186
40
0.800000
1
46015
0
POINT
8
Pikat
10
7509697.742
20
4689327.186
0
TEXT
8
Nr e Pikave Gjeodezike te Parceles Baze
10
7509701.030
20
4689323.350
40
0.800000
1
46016
0
POINT
8
Pikat
10
7509701.030
20
4689323.350
0
TEXT
8
Nr e Pikave Gjeodezike te Parceles Baze
10
7509714.850
20
4689306.049
40
0.800000
1
46017
0
POINT
8
Pikat
10
7509714.850
20
4689306.049
0
ENDSEC
0
EOF
