0
SECTION
2
HEADER
9
$ACADVER
1
AC1009
9
$INSBASE
10
0.000
20
0.000
30
0.000
9
$EXTMIN
10
7513938.660
20
4691208.600
9
$EXTMAX
10
7513938.660
20
4691208.600
0
ENDSEC
0
SECTION
2
TABLES
0
TABLE
2
LTYPE
70
1
0
LTYPE
2
continuous
70
64
3
Solid line
72
65
73
0
40
0.000
0
ENDTAB
0
TABLE
2
LAYER
70
1
0
LAYER
2
Parcela
70
64
62
7
6
continuous
0
ENDTAB
0
TABLE
2
STYLE
70
1
0
STYLE
2
ANNOTATIVE
70
0
40
0
41
40
50
50
71
0
42
1
3
ARIAL.TTF
4

0
ENDTAB
0
TABLE
2
VIEW
70
0
0
ENDTAB
0
ENDSEC
0
SECTION
2
BLOCKS
0
ENDSEC
0
SECTION
2
ENTITIES
0
POLYLINE
66
1
8
Parcela Baze
70
0
10
7509933.215
20
4690635.200
0
VERTEX
8
Parcela Baze
10
7509933.215
20
4690635.200
0
VERTEX
8
Parcela Baze
10
7509956.166
20
4690672.677
0
VERTEX
8
Parcela Baze
10
7509967.833
20
4690691.119
0
VERTEX
8
Parcela Baze
10
7509977.797
20
4690679.536
0
VERTEX
8
Parcela Baze
10
7509983.767
20
4690661.034
0
VERTEX
8
Parcela Baze
10
7509995.976
20
4690638.336
0
VERTEX
8
Parcela Baze
10
7510109.592
20
4690567.290
0
VERTEX
8
Parcela Baze
10
7510138.497
20
4690542.960
0
VERTEX
8
Parcela Baze
10
7510137.702
20
4690532.396
0
VERTEX
8
Parcela Baze
10
7510115.580
20
4690502.688
0
VERTEX
8
Parcela Baze
10
7510090.101
20
4690516.559
0
VERTEX
8
Parcela Baze
10
7510057.332
20
4690538.139
0
VERTEX
8
Parcela Baze
10
7510046.730
20
4690490.142
0
VERTEX
8
Parcela Baze
10
7510031.616
20
4690389.097
0
VERTEX
8
Parcela Baze
10
7510080.635
20
4690355.837
0
VERTEX
8
Parcela Baze
10
7510118.837
20
4690406.773
0
VERTEX
8
Parcela Baze
10
7510140.929
20
4690475.099
0
VERTEX
8
Parcela Baze
10
7510152.969
20
4690471.448
0
VERTEX
8
Parcela Baze
10
7510156.270
20
4690479.238
0
VERTEX
8
Parcela Baze
10
7510179.239
20
4690471.107
0
VERTEX
8
Parcela Baze
10
7510163.178
20
4690434.080
0
VERTEX
8
Parcela Baze
10
7510155.197
20
4690412.881
0
VERTEX
8
Parcela Baze
10
7510142.736
20
4690387.902
0
VERTEX
8
Parcela Baze
10
7510097.673
20
4690287.999
0
VERTEX
8
Parcela Baze
10
7510071.934
20
4690321.898
0
VERTEX
8
Parcela Baze
10
7510052.084
20
4690343.408
0
VERTEX
8
Parcela Baze
10
7510033.045
20
4690359.108
0
VERTEX
8
Parcela Baze
10
7510021.025
20
4690367.478
0
VERTEX
8
Parcela Baze
10
7510015.705
20
4690370.279
0
VERTEX
8
Parcela Baze
10
7509998.906
20
4690376.729
0
VERTEX
8
Parcela Baze
10
7509980.696
20
4690382.609
0
VERTEX
8
Parcela Baze
10
7509965.806
20
4690387.620
0
VERTEX
8
Parcela Baze
10
7509946.766
20
4690391.540
0
VERTEX
8
Parcela Baze
10
7509921.556
20
4690392.102
0
VERTEX
8
Parcela Baze
10
7509905.306
20
4690396.302
0
VERTEX
8
Parcela Baze
10
7509912.340
20
4690479.670
0
VERTEX
8
Parcela Baze
10
7509915.840
20
4690510.566
0
VERTEX
8
Parcela Baze
10
7509925.934
20
4690598.992
0
VERTEX
8
Parcela Baze
10
7509930.135
20
4690629.040
0
VERTEX
8
Parcela Baze
10
7509933.215
20
4690635.200
0
SEQEND
0
TEXT
8
Nr Parceles Baze
10
7509970.879
20
4690481.755
40
0.800000
1
484-0
0
TEXT
8
Nr e Pikave Gjeodezike te Parceles Baze
10
7510138.497
20
4690542.960
40
0.800000
1
49572
0
POINT
8
Pikat
10
7510138.497
20
4690542.960
0
TEXT
8
Nr e Pikave Gjeodezike te Parceles Baze
10
7510109.592
20
4690567.290
40
0.800000
1
49573
0
POINT
8
Pikat
10
7510109.592
20
4690567.290
0
TEXT
8
Nr e Pikave Gjeodezike te Parceles Baze
10
7509995.976
20
4690638.336
40
0.800000
1
49574
0
POINT
8
Pikat
10
7509995.976
20
4690638.336
0
TEXT
8
Nr e Pikave Gjeodezike te Parceles Baze
10
7509983.767
20
4690661.034
40
0.800000
1
49575
0
POINT
8
Pikat
10
7509983.767
20
4690661.034
0
TEXT
8
Nr e Pikave Gjeodezike te Parceles Baze
10
7509977.797
20
4690679.536
40
0.800000
1
49576
0
POINT
8
Pikat
10
7509977.797
20
4690679.536
0
TEXT
8
Nr e Pikave Gjeodezike te Parceles Baze
10
7509967.833
20
4690691.119
40
0.800000
1
49577
0
POINT
8
Pikat
10
7509967.833
20
4690691.119
0
TEXT
8
Nr e Pikave Gjeodezike te Parceles Baze
10
7509905.306
20
4690396.302
40
0.800000
1
49840
0
POINT
8
Pikat
10
7509905.306
20
4690396.302
0
TEXT
8
Nr e Pikave Gjeodezike te Parceles Baze
10
7509921.556
20
4690392.102
40
0.800000
1
49841
0
POINT
8
Pikat
10
7509921.556
20
4690392.102
0
TEXT
8
Nr e Pikave Gjeodezike te Parceles Baze
10
7509946.766
20
4690391.540
40
0.800000
1
49842
0
POINT
8
Pikat
10
7509946.766
20
4690391.540
0
TEXT
8
Nr e Pikave Gjeodezike te Parceles Baze
10
7509965.806
20
4690387.620
40
0.800000
1
49843
0
POINT
8
Pikat
10
7509965.806
20
4690387.620
0
TEXT
8
Nr e Pikave Gjeodezike te Parceles Baze
10
7509980.696
20
4690382.609
40
0.800000
1
49844
0
POINT
8
Pikat
10
7509980.696
20
4690382.609
0
TEXT
8
Nr e Pikave Gjeodezike te Parceles Baze
10
7509998.906
20
4690376.729
40
0.800000
1
49845
0
POINT
8
Pikat
10
7509998.906
20
4690376.729
0
TEXT
8
Nr e Pikave Gjeodezike te Parceles Baze
10
7510015.705
20
4690370.279
40
0.800000
1
49846
0
POINT
8
Pikat
10
7510015.705
20
4690370.279
0
TEXT
8
Nr e Pikave Gjeodezike te Parceles Baze
10
7510021.025
20
4690367.478
40
0.800000
1
49847
0
POINT
8
Pikat
10
7510021.025
20
4690367.478
0
TEXT
8
Nr e Pikave Gjeodezike te Parceles Baze
10
7510033.045
20
4690359.108
40
0.800000
1
49848
0
POINT
8
Pikat
10
7510033.045
20
4690359.108
0
TEXT
8
Nr e Pikave Gjeodezike te Parceles Baze
10
7510052.084
20
4690343.408
40
0.800000
1
49849
0
POINT
8
Pikat
10
7510052.084
20
4690343.408
0
TEXT
8
Nr e Pikave Gjeodezike te Parceles Baze
10
7510071.934
20
4690321.898
40
0.800000
1
49850
0
POINT
8
Pikat
10
7510071.934
20
4690321.898
0
TEXT
8
Nr e Pikave Gjeodezike te Parceles Baze
10
7510097.673
20
4690287.999
40
0.800000
1
49851
0
POINT
8
Pikat
10
7510097.673
20
4690287.999
0
TEXT
8
Nr e Pikave Gjeodezike te Parceles Baze
10
7509933.215
20
4690635.200
40
0.800000
1
49967
0
POINT
8
Pikat
10
7509933.215
20
4690635.200
0
TEXT
8
Nr e Pikave Gjeodezike te Parceles Baze
10
7509956.166
20
4690672.677
40
0.800000
1
49968
0
POINT
8
Pikat
10
7509956.166
20
4690672.677
0
TEXT
8
Nr e Pikave Gjeodezike te Parceles Baze
10
7510137.702
20
4690532.396
40
0.800000
1
49969
0
POINT
8
Pikat
10
7510137.702
20
4690532.396
0
TEXT
8
Nr e Pikave Gjeodezike te Parceles Baze
10
7510115.580
20
4690502.688
40
0.800000
1
49970
0
POINT
8
Pikat
10
7510115.580
20
4690502.688
0
TEXT
8
Nr e Pikave Gjeodezike te Parceles Baze
10
7510090.101
20
4690516.559
40
0.800000
1
49971
0
POINT
8
Pikat
10
7510090.101
20
4690516.559
0
TEXT
8
Nr e Pikave Gjeodezike te Parceles Baze
10
7510057.332
20
4690538.139
40
0.800000
1
49972
0
POINT
8
Pikat
10
7510057.332
20
4690538.139
0
TEXT
8
Nr e Pikave Gjeodezike te Parceles Baze
10
7510046.730
20
4690490.142
40
0.800000
1
49973
0
POINT
8
Pikat
10
7510046.730
20
4690490.142
0
TEXT
8
Nr e Pikave Gjeodezike te Parceles Baze
10
7510031.616
20
4690389.097
40
0.800000
1
49974
0
POINT
8
Pikat
10
7510031.616
20
4690389.097
0
TEXT
8
Nr e Pikave Gjeodezike te Parceles Baze
10
7510080.635
20
4690355.837
40
0.800000
1
49975
0
POINT
8
Pikat
10
7510080.635
20
4690355.837
0
TEXT
8
Nr e Pikave Gjeodezike te Parceles Baze
10
7510118.837
20
4690406.773
40
0.800000
1
49976
0
POINT
8
Pikat
10
7510118.837
20
4690406.773
0
TEXT
8
Nr e Pikave Gjeodezike te Parceles Baze
10
7510140.929
20
4690475.099
40
0.800000
1
49977
0
POINT
8
Pikat
10
7510140.929
20
4690475.099
0
TEXT
8
Nr e Pikave Gjeodezike te Parceles Baze
10
7510152.969
20
4690471.448
40
0.800000
1
49978
0
POINT
8
Pikat
10
7510152.969
20
4690471.448
0
TEXT
8
Nr e Pikave Gjeodezike te Parceles Baze
10
7510156.270
20
4690479.238
40
0.800000
1
49979
0
POINT
8
Pikat
10
7510156.270
20
4690479.238
0
TEXT
8
Nr e Pikave Gjeodezike te Parceles Baze
10
7510179.239
20
4690471.107
40
0.800000
1
49980
0
POINT
8
Pikat
10
7510179.239
20
4690471.107
0
TEXT
8
Nr e Pikave Gjeodezike te Parceles Baze
10
7510163.178
20
4690434.080
40
0.800000
1
49981
0
POINT
8
Pikat
10
7510163.178
20
4690434.080
0
TEXT
8
Nr e Pikave Gjeodezike te Parceles Baze
10
7510155.197
20
4690412.881
40
0.800000
1
49982
0
POINT
8
Pikat
10
7510155.197
20
4690412.881
0
TEXT
8
Nr e Pikave Gjeodezike te Parceles Baze
10
7510142.736
20
4690387.902
40
0.800000
1
49983
0
POINT
8
Pikat
10
7510142.736
20
4690387.902
0
TEXT
8
Nr e Pikave Gjeodezike te Parceles Baze
10
7509912.340
20
4690479.670
40
0.800000
1
49984
0
POINT
8
Pikat
10
7509912.340
20
4690479.670
0
TEXT
8
Nr e Pikave Gjeodezike te Parceles Baze
10
7509915.840
20
4690510.566
40
0.800000
1
49985
0
POINT
8
Pikat
10
7509915.840
20
4690510.566
0
TEXT
8
Nr e Pikave Gjeodezike te Parceles Baze
10
7509925.934
20
4690598.992
40
0.800000
1
49986
0
POINT
8
Pikat
10
7509925.934
20
4690598.992
0
TEXT
8
Nr e Pikave Gjeodezike te Parceles Baze
10
7509930.135
20
4690629.040
40
0.800000
1
49987
0
POINT
8
Pikat
10
7509930.135
20
4690629.040
0
ENDSEC
0
EOF
