0
SECTION
2
HEADER
9
$ACADVER
1
AC1009
9
$INSBASE
10
0.000
20
0.000
30
0.000
9
$EXTMIN
10
7513938.660
20
4691208.600
9
$EXTMAX
10
7513938.660
20
4691208.600
0
ENDSEC
0
SECTION
2
TABLES
0
TABLE
2
LTYPE
70
1
0
LTYPE
2
continuous
70
64
3
Solid line
72
65
73
0
40
0.000
0
ENDTAB
0
TABLE
2
LAYER
70
1
0
LAYER
2
Parcela
70
64
62
7
6
continuous
0
ENDTAB
0
TABLE
2
STYLE
70
1
0
STYLE
2
ANNOTATIVE
70
0
40
0
41
40
50
50
71
0
42
1
3
ARIAL.TTF
4

0
ENDTAB
0
TABLE
2
VIEW
70
0
0
ENDTAB
0
ENDSEC
0
SECTION
2
BLOCKS
0
ENDSEC
0
SECTION
2
ENTITIES
0
POLYLINE
66
1
8
Parcela Baze
70
0
10
7509946.374
20
4690046.706
0
VERTEX
8
Parcela Baze
10
7509946.374
20
4690046.706
0
VERTEX
8
Parcela Baze
10
7509938.294
20
4690060.516
0
VERTEX
8
Parcela Baze
10
7509924.425
20
4690082.995
0
VERTEX
8
Parcela Baze
10
7509975.757
20
4690142.741
0
VERTEX
8
Parcela Baze
10
7510005.858
20
4690170.068
0
VERTEX
8
Parcela Baze
10
7510009.748
20
4690164.758
0
VERTEX
8
Parcela Baze
10
7510019.847
20
4690139.979
0
VERTEX
8
Parcela Baze
10
7510028.036
20
4690121.667
0
VERTEX
8
Parcela Baze
10
7510032.556
20
4690111.560
0
VERTEX
8
Parcela Baze
10
7510043.505
20
4690082.810
0
VERTEX
8
Parcela Baze
10
7510020.865
20
4690071.842
0
VERTEX
8
Parcela Baze
10
7509996.374
20
4690055.314
0
VERTEX
8
Parcela Baze
10
7509969.123
20
4690040.215
0
VERTEX
8
Parcela Baze
10
7509956.413
20
4690029.486
0
VERTEX
8
Parcela Baze
10
7509953.543
20
4690032.836
0
VERTEX
8
Parcela Baze
10
7509946.374
20
4690046.706
0
SEQEND
0
TEXT
8
Nr Parceles Baze
10
7509973.805
20
4690089.413
40
0.800000
1
00502-0
0
TEXT
8
Nr e Pikave Gjeodezike te Parceles Baze
10
7509953.543
20
4690032.836
40
0.800000
1
48464
0
POINT
8
Pikat
10
7509953.543
20
4690032.836
0
TEXT
8
Nr e Pikave Gjeodezike te Parceles Baze
10
7509956.413
20
4690029.486
40
0.800000
1
48465
0
POINT
8
Pikat
10
7509956.413
20
4690029.486
0
TEXT
8
Nr e Pikave Gjeodezike te Parceles Baze
10
7509946.374
20
4690046.706
40
0.800000
1
48476
0
POINT
8
Pikat
10
7509946.374
20
4690046.706
0
TEXT
8
Nr e Pikave Gjeodezike te Parceles Baze
10
7509938.294
20
4690060.516
40
0.800000
1
48485
0
POINT
8
Pikat
10
7509938.294
20
4690060.516
0
TEXT
8
Nr e Pikave Gjeodezike te Parceles Baze
10
7509924.425
20
4690082.995
40
0.800000
1
48486
0
POINT
8
Pikat
10
7509924.425
20
4690082.995
0
TEXT
8
Nr e Pikave Gjeodezike te Parceles Baze
10
7509975.757
20
4690142.741
40
0.800000
1
48487
0
POINT
8
Pikat
10
7509975.757
20
4690142.741
0
TEXT
8
Nr e Pikave Gjeodezike te Parceles Baze
10
7510005.858
20
4690170.068
40
0.800000
1
48488
0
POINT
8
Pikat
10
7510005.858
20
4690170.068
0
TEXT
8
Nr e Pikave Gjeodezike te Parceles Baze
10
7510009.748
20
4690164.758
40
0.800000
1
48489
0
POINT
8
Pikat
10
7510009.748
20
4690164.758
0
TEXT
8
Nr e Pikave Gjeodezike te Parceles Baze
10
7510019.847
20
4690139.979
40
0.800000
1
48490
0
POINT
8
Pikat
10
7510019.847
20
4690139.979
0
TEXT
8
Nr e Pikave Gjeodezike te Parceles Baze
10
7510028.036
20
4690121.667
40
0.800000
1
48491
0
POINT
8
Pikat
10
7510028.036
20
4690121.667
0
TEXT
8
Nr e Pikave Gjeodezike te Parceles Baze
10
7510032.556
20
4690111.560
40
0.800000
1
48492
0
POINT
8
Pikat
10
7510032.556
20
4690111.560
0
TEXT
8
Nr e Pikave Gjeodezike te Parceles Baze
10
7510043.505
20
4690082.810
40
0.800000
1
48493
0
POINT
8
Pikat
10
7510043.505
20
4690082.810
0
TEXT
8
Nr e Pikave Gjeodezike te Parceles Baze
10
7510020.865
20
4690071.842
40
0.800000
1
48494
0
POINT
8
Pikat
10
7510020.865
20
4690071.842
0
TEXT
8
Nr e Pikave Gjeodezike te Parceles Baze
10
7509996.374
20
4690055.314
40
0.800000
1
48495
0
POINT
8
Pikat
10
7509996.374
20
4690055.314
0
TEXT
8
Nr e Pikave Gjeodezike te Parceles Baze
10
7509969.123
20
4690040.215
40
0.800000
1
48496
0
POINT
8
Pikat
10
7509969.123
20
4690040.215
0
ENDSEC
0
EOF
