0
SECTION
2
HEADER
9
$ACADVER
1
AC1009
9
$INSBASE
10
0.000
20
0.000
30
0.000
9
$EXTMIN
10
7513938.660
20
4691208.600
9
$EXTMAX
10
7513938.660
20
4691208.600
0
ENDSEC
0
SECTION
2
TABLES
0
TABLE
2
LTYPE
70
1
0
LTYPE
2
continuous
70
64
3
Solid line
72
65
73
0
40
0.000
0
ENDTAB
0
TABLE
2
LAYER
70
1
0
LAYER
2
Parcela
70
64
62
7
6
continuous
0
ENDTAB
0
TABLE
2
STYLE
70
1
0
STYLE
2
ANNOTATIVE
70
0
40
0
41
40
50
50
71
0
42
1
3
ARIAL.TTF
4

0
ENDTAB
0
TABLE
2
VIEW
70
0
0
ENDTAB
0
ENDSEC
0
SECTION
2
BLOCKS
0
ENDSEC
0
SECTION
2
ENTITIES
0
POLYLINE
66
1
8
Parcela Baze
70
0
10
7509311.213
20
4689726.608
0
VERTEX
8
Parcela Baze
10
7509311.213
20
4689726.608
0
VERTEX
8
Parcela Baze
10
7509326.933
20
4689731.757
0
VERTEX
8
Parcela Baze
10
7509314.463
20
4689735.558
0
VERTEX
8
Parcela Baze
10
7509330.463
20
4689764.846
0
VERTEX
8
Parcela Baze
10
7509343.743
20
4689767.286
0
VERTEX
8
Parcela Baze
10
7509346.133
20
4689774.186
0
VERTEX
8
Parcela Baze
10
7509366.143
20
4689774.995
0
VERTEX
8
Parcela Baze
10
7509374.253
20
4689777.155
0
VERTEX
8
Parcela Baze
10
7509383.443
20
4689781.754
0
VERTEX
8
Parcela Baze
10
7509400.873
20
4689795.813
0
VERTEX
8
Parcela Baze
10
7509413.003
20
4689802.543
0
VERTEX
8
Parcela Baze
10
7509426.523
20
4689815.522
0
VERTEX
8
Parcela Baze
10
7509433.823
20
4689825.802
0
VERTEX
8
Parcela Baze
10
7509442.473
20
4689842.851
0
VERTEX
8
Parcela Baze
10
7509445.973
20
4689854.980
0
VERTEX
8
Parcela Baze
10
7509447.034
20
4689886.439
0
VERTEX
8
Parcela Baze
10
7509467.583
20
4689872.909
0
VERTEX
8
Parcela Baze
10
7509467.783
20
4689869.139
0
VERTEX
8
Parcela Baze
10
7509467.583
20
4689853.470
0
VERTEX
8
Parcela Baze
10
7509467.982
20
4689838.000
0
VERTEX
8
Parcela Baze
10
7509570.900
20
4689818.628
0
VERTEX
8
Parcela Baze
10
7509639.849
20
4689805.786
0
VERTEX
8
Parcela Baze
10
7509606.539
20
4689777.938
0
VERTEX
8
Parcela Baze
10
7509594.089
20
4689771.109
0
VERTEX
8
Parcela Baze
10
7509570.219
20
4689748.650
0
VERTEX
8
Parcela Baze
10
7509559.379
20
4689740.621
0
VERTEX
8
Parcela Baze
10
7509559.009
20
4689726.861
0
VERTEX
8
Parcela Baze
10
7509529.809
20
4689720.102
0
VERTEX
8
Parcela Baze
10
7509513.820
20
4689761.921
0
VERTEX
8
Parcela Baze
10
7509491.741
20
4689747.862
0
VERTEX
8
Parcela Baze
10
7509452.159
20
4689739.093
0
VERTEX
8
Parcela Baze
10
7509437.350
20
4689730.570
0
VERTEX
8
Parcela Baze
10
7509426.760
20
4689724.037
0
VERTEX
8
Parcela Baze
10
7509416.200
20
4689720.570
0
VERTEX
8
Parcela Baze
10
7509384.947
20
4689709.110
0
VERTEX
8
Parcela Baze
10
7509359.462
20
4689701.947
0
VERTEX
8
Parcela Baze
10
7509340.212
20
4689701.398
0
VERTEX
8
Parcela Baze
10
7509312.253
20
4689702.449
0
VERTEX
8
Parcela Baze
10
7509311.483
20
4689715.478
0
VERTEX
8
Parcela Baze
10
7509311.213
20
4689726.608
0
SEQEND
0
TEXT
8
Nr Parceles Baze
10
7509502.791
20
4689791.891
40
0.800000
1
00658-0
0
TEXT
8
Nr e Pikave Gjeodezike te Parceles Baze
10
7509442.473
20
4689842.851
40
0.800000
1
50636
0
POINT
8
Pikat
10
7509442.473
20
4689842.851
0
TEXT
8
Nr e Pikave Gjeodezike te Parceles Baze
10
7509445.973
20
4689854.980
40
0.800000
1
50637
0
POINT
8
Pikat
10
7509445.973
20
4689854.980
0
TEXT
8
Nr e Pikave Gjeodezike te Parceles Baze
10
7509447.034
20
4689886.439
40
0.800000
1
50638
0
POINT
8
Pikat
10
7509447.034
20
4689886.439
0
TEXT
8
Nr e Pikave Gjeodezike te Parceles Baze
10
7509467.583
20
4689872.909
40
0.800000
1
50639
0
POINT
8
Pikat
10
7509467.583
20
4689872.909
0
TEXT
8
Nr e Pikave Gjeodezike te Parceles Baze
10
7509467.783
20
4689869.139
40
0.800000
1
50640
0
POINT
8
Pikat
10
7509467.783
20
4689869.139
0
TEXT
8
Nr e Pikave Gjeodezike te Parceles Baze
10
7509426.760
20
4689724.037
40
0.800000
1
50653
0
POINT
8
Pikat
10
7509426.760
20
4689724.037
0
TEXT
8
Nr e Pikave Gjeodezike te Parceles Baze
10
7509416.200
20
4689720.570
40
0.800000
1
50654
0
POINT
8
Pikat
10
7509416.200
20
4689720.570
0
TEXT
8
Nr e Pikave Gjeodezike te Parceles Baze
10
7509384.947
20
4689709.110
40
0.800000
1
50655
0
POINT
8
Pikat
10
7509384.947
20
4689709.110
0
TEXT
8
Nr e Pikave Gjeodezike te Parceles Baze
10
7509346.133
20
4689774.186
40
0.800000
1
50623
0
POINT
8
Pikat
10
7509346.133
20
4689774.186
0
TEXT
8
Nr e Pikave Gjeodezike te Parceles Baze
10
7509311.483
20
4689715.478
40
0.800000
1
50621
0
POINT
8
Pikat
10
7509311.483
20
4689715.478
0
TEXT
8
Nr e Pikave Gjeodezike te Parceles Baze
10
7509311.213
20
4689726.608
40
0.800000
1
50620
0
POINT
8
Pikat
10
7509311.213
20
4689726.608
0
TEXT
8
Nr e Pikave Gjeodezike te Parceles Baze
10
7509529.809
20
4689720.102
40
0.800000
1
48285
0
POINT
8
Pikat
10
7509529.809
20
4689720.102
0
TEXT
8
Nr e Pikave Gjeodezike te Parceles Baze
10
7509467.583
20
4689853.470
40
0.800000
1
50641
0
POINT
8
Pikat
10
7509467.583
20
4689853.470
0
TEXT
8
Nr e Pikave Gjeodezike te Parceles Baze
10
7509570.900
20
4689818.628
40
0.800000
1
50643
0
POINT
8
Pikat
10
7509570.900
20
4689818.628
0
TEXT
8
Nr e Pikave Gjeodezike te Parceles Baze
10
7509491.741
20
4689747.862
40
0.800000
1
50650
0
POINT
8
Pikat
10
7509491.741
20
4689747.862
0
TEXT
8
Nr e Pikave Gjeodezike te Parceles Baze
10
7509437.350
20
4689730.570
40
0.800000
1
50652
0
POINT
8
Pikat
10
7509437.350
20
4689730.570
0
TEXT
8
Nr e Pikave Gjeodezike te Parceles Baze
10
7509426.523
20
4689815.522
40
0.800000
1
50634
0
POINT
8
Pikat
10
7509426.523
20
4689815.522
0
TEXT
8
Nr e Pikave Gjeodezike te Parceles Baze
10
7509400.873
20
4689795.813
40
0.800000
1
50632
0
POINT
8
Pikat
10
7509400.873
20
4689795.813
0
TEXT
8
Nr e Pikave Gjeodezike te Parceles Baze
10
7509314.463
20
4689735.558
40
0.800000
1
50627
0
POINT
8
Pikat
10
7509314.463
20
4689735.558
0
TEXT
8
Nr e Pikave Gjeodezike te Parceles Baze
10
7509330.463
20
4689764.846
40
0.800000
1
50625
0
POINT
8
Pikat
10
7509330.463
20
4689764.846
0
TEXT
8
Nr e Pikave Gjeodezike te Parceles Baze
10
7509359.462
20
4689701.947
40
0.800000
1
50616
0
POINT
8
Pikat
10
7509359.462
20
4689701.947
0
TEXT
8
Nr e Pikave Gjeodezike te Parceles Baze
10
7509606.539
20
4689777.938
40
0.800000
1
50645
0
POINT
8
Pikat
10
7509606.539
20
4689777.938
0
TEXT
8
Nr e Pikave Gjeodezike te Parceles Baze
10
7509594.089
20
4689771.109
40
0.800000
1
50646
0
POINT
8
Pikat
10
7509594.089
20
4689771.109
0
TEXT
8
Nr e Pikave Gjeodezike te Parceles Baze
10
7509570.219
20
4689748.650
40
0.800000
1
50647
0
POINT
8
Pikat
10
7509570.219
20
4689748.650
0
TEXT
8
Nr e Pikave Gjeodezike te Parceles Baze
10
7509559.379
20
4689740.621
40
0.800000
1
50648
0
POINT
8
Pikat
10
7509559.379
20
4689740.621
0
TEXT
8
Nr e Pikave Gjeodezike te Parceles Baze
10
7509383.443
20
4689781.754
40
0.800000
1
50631
0
POINT
8
Pikat
10
7509383.443
20
4689781.754
0
TEXT
8
Nr e Pikave Gjeodezike te Parceles Baze
10
7509374.253
20
4689777.155
40
0.800000
1
50630
0
POINT
8
Pikat
10
7509374.253
20
4689777.155
0
TEXT
8
Nr e Pikave Gjeodezike te Parceles Baze
10
7509366.143
20
4689774.995
40
0.800000
1
50629
0
POINT
8
Pikat
10
7509366.143
20
4689774.995
0
TEXT
8
Nr e Pikave Gjeodezike te Parceles Baze
10
7509326.933
20
4689731.757
40
0.800000
1
50628
0
POINT
8
Pikat
10
7509326.933
20
4689731.757
0
TEXT
8
Nr e Pikave Gjeodezike te Parceles Baze
10
7509312.253
20
4689702.449
40
0.800000
1
50614
0
POINT
8
Pikat
10
7509312.253
20
4689702.449
0
TEXT
8
Nr e Pikave Gjeodezike te Parceles Baze
10
7509559.009
20
4689726.861
40
0.800000
1
48286
0
POINT
8
Pikat
10
7509559.009
20
4689726.861
0
TEXT
8
Nr e Pikave Gjeodezike te Parceles Baze
10
7509340.212
20
4689701.398
40
0.800000
1
50615
0
POINT
8
Pikat
10
7509340.212
20
4689701.398
0
TEXT
8
Nr e Pikave Gjeodezike te Parceles Baze
10
7509343.743
20
4689767.286
40
0.800000
1
50624
0
POINT
8
Pikat
10
7509343.743
20
4689767.286
0
TEXT
8
Nr e Pikave Gjeodezike te Parceles Baze
10
7509413.003
20
4689802.543
40
0.800000
1
50633
0
POINT
8
Pikat
10
7509413.003
20
4689802.543
0
TEXT
8
Nr e Pikave Gjeodezike te Parceles Baze
10
7509433.823
20
4689825.802
40
0.800000
1
50635
0
POINT
8
Pikat
10
7509433.823
20
4689825.802
0
TEXT
8
Nr e Pikave Gjeodezike te Parceles Baze
10
7509467.982
20
4689838.000
40
0.800000
1
50642
0
POINT
8
Pikat
10
7509467.982
20
4689838.000
0
TEXT
8
Nr e Pikave Gjeodezike te Parceles Baze
10
7509639.849
20
4689805.786
40
0.800000
1
50644
0
POINT
8
Pikat
10
7509639.849
20
4689805.786
0
TEXT
8
Nr e Pikave Gjeodezike te Parceles Baze
10
7509513.820
20
4689761.921
40
0.800000
1
50649
0
POINT
8
Pikat
10
7509513.820
20
4689761.921
0
TEXT
8
Nr e Pikave Gjeodezike te Parceles Baze
10
7509452.159
20
4689739.093
40
0.800000
1
50651
0
POINT
8
Pikat
10
7509452.159
20
4689739.093
0
ENDSEC
0
EOF
