0
SECTION
2
HEADER
9
$ACADVER
1
AC1009
9
$INSBASE
10
0.000
20
0.000
30
0.000
9
$EXTMIN
10
7513938.660
20
4691208.600
9
$EXTMAX
10
7513938.660
20
4691208.600
0
ENDSEC
0
SECTION
2
TABLES
0
TABLE
2
LTYPE
70
1
0
LTYPE
2
continuous
70
64
3
Solid line
72
65
73
0
40
0.000
0
ENDTAB
0
TABLE
2
LAYER
70
1
0
LAYER
2
Parcela
70
64
62
7
6
continuous
0
ENDTAB
0
TABLE
2
STYLE
70
1
0
STYLE
2
ANNOTATIVE
70
0
40
0
41
40
50
50
71
0
42
1
3
ARIAL.TTF
4

0
ENDTAB
0
TABLE
2
VIEW
70
0
0
ENDTAB
0
ENDSEC
0
SECTION
2
BLOCKS
0
ENDSEC
0
SECTION
2
ENTITIES
0
POLYLINE
66
1
8
Parcela Baze
70
0
10
7511691.691
20
4691004.340
0
VERTEX
8
Parcela Baze
10
7511691.691
20
4691004.340
0
VERTEX
8
Parcela Baze
10
7511682.141
20
4690993.891
0
VERTEX
8
Parcela Baze
10
7511671.100
20
4690982.202
0
VERTEX
8
Parcela Baze
10
7511658.740
20
4690968.870
0
VERTEX
8
Parcela Baze
10
7511657.380
20
4690967.403
0
VERTEX
8
Parcela Baze
10
7511655.660
20
4690966.390
0
VERTEX
8
Parcela Baze
10
7511642.269
20
4690958.524
0
VERTEX
8
Parcela Baze
10
7511636.130
20
4690965.784
0
VERTEX
8
Parcela Baze
10
7511624.200
20
4690971.854
0
VERTEX
8
Parcela Baze
10
7511604.990
20
4690978.915
0
VERTEX
8
Parcela Baze
10
7511583.190
20
4690982.246
0
VERTEX
8
Parcela Baze
10
7511552.830
20
4690987.707
0
VERTEX
8
Parcela Baze
10
7511559.240
20
4691012.610
0
VERTEX
8
Parcela Baze
10
7511563.440
20
4691028.950
0
VERTEX
8
Parcela Baze
10
7511567.833
20
4691046.003
0
VERTEX
8
Parcela Baze
10
7511589.753
20
4691046.712
0
VERTEX
8
Parcela Baze
10
7511601.153
20
4691044.482
0
VERTEX
8
Parcela Baze
10
7511670.052
20
4691027.080
0
VERTEX
8
Parcela Baze
10
7511700.072
20
4691015.689
0
VERTEX
8
Parcela Baze
10
7511691.691
20
4691004.340
0
SEQEND
0
TEXT
8
Nr Parceles Baze
10
7511607.281
20
4691000.254
40
0.800000
1
9-0
0
TEXT
8
Nr e Pikave Gjeodezike te Parceles Baze
10
7511700.072
20
4691015.689
40
0.800000
1
20561
0
POINT
8
Pikat
10
7511700.072
20
4691015.689
0
TEXT
8
Nr e Pikave Gjeodezike te Parceles Baze
10
7511670.052
20
4691027.080
40
0.800000
1
20562
0
POINT
8
Pikat
10
7511670.052
20
4691027.080
0
TEXT
8
Nr e Pikave Gjeodezike te Parceles Baze
10
7511601.153
20
4691044.482
40
0.800000
1
20563
0
POINT
8
Pikat
10
7511601.153
20
4691044.482
0
TEXT
8
Nr e Pikave Gjeodezike te Parceles Baze
10
7511589.753
20
4691046.712
40
0.800000
1
20564
0
POINT
8
Pikat
10
7511589.753
20
4691046.712
0
TEXT
8
Nr e Pikave Gjeodezike te Parceles Baze
10
7511567.833
20
4691046.003
40
0.800000
1
20565
0
POINT
8
Pikat
10
7511567.833
20
4691046.003
0
TEXT
8
Nr e Pikave Gjeodezike te Parceles Baze
10
7511691.691
20
4691004.340
40
0.800000
1
22598
0
POINT
8
Pikat
10
7511691.691
20
4691004.340
0
TEXT
8
Nr e Pikave Gjeodezike te Parceles Baze
10
7511682.141
20
4690993.891
40
0.800000
1
22607
0
POINT
8
Pikat
10
7511682.141
20
4690993.891
0
TEXT
8
Nr e Pikave Gjeodezike te Parceles Baze
10
7511671.100
20
4690982.202
40
0.800000
1
22608
0
POINT
8
Pikat
10
7511671.100
20
4690982.202
0
TEXT
8
Nr e Pikave Gjeodezike te Parceles Baze
10
7511658.740
20
4690968.870
40
0.800000
1
22609
0
POINT
8
Pikat
10
7511658.740
20
4690968.870
0
TEXT
8
Nr e Pikave Gjeodezike te Parceles Baze
10
7511657.380
20
4690967.403
40
0.800000
1
22610
0
POINT
8
Pikat
10
7511657.380
20
4690967.403
0
TEXT
8
Nr e Pikave Gjeodezike te Parceles Baze
10
7511655.660
20
4690966.390
40
0.800000
1
22611
0
POINT
8
Pikat
10
7511655.660
20
4690966.390
0
TEXT
8
Nr e Pikave Gjeodezike te Parceles Baze
10
7511642.269
20
4690958.524
40
0.800000
1
22612
0
POINT
8
Pikat
10
7511642.269
20
4690958.524
0
TEXT
8
Nr e Pikave Gjeodezike te Parceles Baze
10
7511636.130
20
4690965.784
40
0.800000
1
22613
0
POINT
8
Pikat
10
7511636.130
20
4690965.784
0
TEXT
8
Nr e Pikave Gjeodezike te Parceles Baze
10
7511624.200
20
4690971.854
40
0.800000
1
22614
0
POINT
8
Pikat
10
7511624.200
20
4690971.854
0
TEXT
8
Nr e Pikave Gjeodezike te Parceles Baze
10
7511604.990
20
4690978.915
40
0.800000
1
22615
0
POINT
8
Pikat
10
7511604.990
20
4690978.915
0
TEXT
8
Nr e Pikave Gjeodezike te Parceles Baze
10
7511583.190
20
4690982.246
40
0.800000
1
22616
0
POINT
8
Pikat
10
7511583.190
20
4690982.246
0
TEXT
8
Nr e Pikave Gjeodezike te Parceles Baze
10
7511552.830
20
4690987.707
40
0.800000
1
22617
0
POINT
8
Pikat
10
7511552.830
20
4690987.707
0
TEXT
8
Nr e Pikave Gjeodezike te Parceles Baze
10
7511559.240
20
4691012.610
40
0.800000
1
22618
0
POINT
8
Pikat
10
7511559.240
20
4691012.610
0
TEXT
8
Nr e Pikave Gjeodezike te Parceles Baze
10
7511563.440
20
4691028.950
40
0.800000
1
22619
0
POINT
8
Pikat
10
7511563.440
20
4691028.950
0
ENDSEC
0
EOF
